<svg width="1024" height="1024" viewBox="0 0 1024 1024" fill="none" xmlns="http://www.w3.org/2000/svg">
  <defs>
    <linearGradient id="bg" x1="128" y1="96" x2="896" y2="928" gradientUnits="userSpaceOnUse">
      <stop stop-color="#10050A" />
      <stop offset="1" stop-color="#250B13" />
    </linearGradient>
    <linearGradient id="ring" x1="228" y1="176" x2="796" y2="836" gradientUnits="userSpaceOnUse">
      <stop stop-color="#FF5F6D" />
      <stop offset="0.5" stop-color="#FF7A7A" />
      <stop offset="1" stop-color="#FFB347" />
    </linearGradient>
    <linearGradient id="text" x1="350" y1="350" x2="670" y2="670" gradientUnits="userSpaceOnUse">
      <stop stop-color="#FFD1D6" />
      <stop offset="1" stop-color="#FF7A7A" />
    </linearGradient>
    <filter id="glow" x="100" y="100" width="824" height="824" filterUnits="userSpaceOnUse" color-interpolation-filters="sRGB">
      <feGaussianBlur stdDeviation="24" result="blur" />
      <feMerge>
        <feMergeNode in="blur" />
        <feMergeNode in="SourceGraphic" />
      </feMerge>
    </filter>
  </defs>

  <rect width="1024" height="1024" rx="220" fill="url(#bg)" />
  <g opacity="0.3">
    <path d="M128 256H896" stroke="#FF4F7B" stroke-width="2" />
    <path d="M128 512H896" stroke="#FF4F7B" stroke-width="2" />
    <path d="M128 768H896" stroke="#FF4F7B" stroke-width="2" />
    <path d="M256 128V896" stroke="#FF4F7B" stroke-width="2" />
    <path d="M512 128V896" stroke="#FF4F7B" stroke-width="2" />
    <path d="M768 128V896" stroke="#FF4F7B" stroke-width="2" />
  </g>

  <g filter="url(#glow)">
    <rect x="190" y="190" width="644" height="644" rx="200" stroke="url(#ring)" stroke-width="20" />
    <rect x="256" y="256" width="512" height="512" rx="156" stroke="#FF7A7A" stroke-opacity="0.7" stroke-width="6" />
    <path d="M382 380H642" stroke="#FFB347" stroke-width="14" stroke-linecap="round" />
    <path d="M382 512H606" stroke="#FFB347" stroke-width="14" stroke-linecap="round" />
    <path d="M382 644H556" stroke="#FFB347" stroke-width="14" stroke-linecap="round" />
  </g>

  <text x="512" y="560" text-anchor="middle" fill="url(#text)" font-size="188" font-family="Orbitron, Arial, sans-serif" font-weight="800" letter-spacing="6">
    FEP
  </text>
  <text x="512" y="720" text-anchor="middle" fill="#FF9AA8" font-size="62" font-family="Orbitron, Arial, sans-serif" letter-spacing="8">
    FUTURE EA PRO
  </text>
</svg>
